<svg width="18" height="18" viewBox="0 0 18 18" fill="none" xmlns="http://www.w3.org/2000/svg">
<path d="M13.5833 12.6667L17.25 9.00002M17.25 9.00002L13.5833 5.33335M17.25 9.00002H4.41667M9.91667 12.6667V13.5834C9.91667 14.3127 9.62694 15.0122 9.11121 15.5279C8.59549 16.0436 7.89601 16.3334 7.16667 16.3334H3.5C2.77065 16.3334 2.07118 16.0436 1.55546 15.5279C1.03973 15.0122 0.75 14.3127 0.75 13.5834V4.41669C0.75 3.68734 1.03973 2.98787 1.55546 2.47214C2.07118 1.95642 2.77065 1.66669 3.5 1.66669H7.16667C7.89601 1.66669 8.59549 1.95642 9.11121 2.47214C9.62694 2.98787 9.91667 3.68734 9.91667 4.41669V5.33335" stroke="#979797" stroke-width="1.5" stroke-linecap="round" stroke-linejoin="round"/>
</svg>
