<svg width="22" height="22" viewBox="0 0 22 22" fill="none" xmlns="http://www.w3.org/2000/svg">
<path d="M15.5833 18.3333H20.1666V16.5C20.1665 15.9284 19.9884 15.3712 19.657 14.9055C19.3256 14.4399 18.8574 14.0891 18.3174 13.9019C17.7775 13.7147 17.1926 13.7003 16.6441 13.8609C16.0956 14.0214 15.6107 14.3489 15.2569 14.7977M15.5833 18.3333H6.41659M15.5833 18.3333V16.5C15.5833 15.8986 15.4678 15.3239 15.2569 14.7977M15.2569 14.7977C14.9165 13.947 14.329 13.2178 13.5702 12.7042C12.8115 12.1905 11.9162 11.916 10.9999 11.916C10.0836 11.916 9.18837 12.1905 8.42959 12.7042C7.67081 13.2178 7.08333 13.947 6.74292 14.7977M6.41659 18.3333H1.83325V16.5C1.83329 15.9284 2.01139 15.3712 2.34279 14.9055C2.67419 14.4399 3.14242 14.0891 3.6824 13.9019C4.22237 13.7147 4.80726 13.7003 5.35576 13.8609C5.90426 14.0214 6.38911 14.3489 6.74292 14.7977M6.41659 18.3333V16.5C6.41659 15.8986 6.53209 15.3239 6.74292 14.7977M13.7499 6.41663C13.7499 7.14597 13.4602 7.84545 12.9445 8.36117C12.4287 8.8769 11.7293 9.16663 10.9999 9.16663C10.2706 9.16663 9.5711 8.8769 9.05537 8.36117C8.53965 7.84545 8.24992 7.14597 8.24992 6.41663C8.24992 5.68728 8.53965 4.98781 9.05537 4.47208C9.5711 3.95636 10.2706 3.66663 10.9999 3.66663C11.7293 3.66663 12.4287 3.95636 12.9445 4.47208C13.4602 4.98781 13.7499 5.68728 13.7499 6.41663ZM19.2499 9.16663C19.2499 9.65286 19.0568 10.1192 18.7129 10.463C18.3691 10.8068 17.9028 11 17.4166 11C16.9304 11 16.464 10.8068 16.1202 10.463C15.7764 10.1192 15.5833 9.65286 15.5833 9.16663C15.5833 8.6804 15.7764 8.21408 16.1202 7.87026C16.464 7.52645 16.9304 7.33329 17.4166 7.33329C17.9028 7.33329 18.3691 7.52645 18.7129 7.87026C19.0568 8.21408 19.2499 8.6804 19.2499 9.16663ZM6.41659 9.16663C6.41659 9.65286 6.22343 10.1192 5.87961 10.463C5.5358 10.8068 5.06948 11 4.58325 11C4.09702 11 3.63071 10.8068 3.28689 10.463C2.94307 10.1192 2.74992 9.65286 2.74992 9.16663C2.74992 8.6804 2.94307 8.21408 3.28689 7.87026C3.63071 7.52645 4.09702 7.33329 4.58325 7.33329C5.06948 7.33329 5.5358 7.52645 5.87961 7.87026C6.22343 8.21408 6.41659 8.6804 6.41659 9.16663Z" stroke="#FFD34B" stroke-width="1.5" stroke-linecap="round" stroke-linejoin="round"/>
</svg>
