<svg width="22" height="22" viewBox="0 0 22 22" fill="none" xmlns="http://www.w3.org/2000/svg">
<path d="M8.24992 4.58333H6.41659C5.93035 4.58333 5.46404 4.77649 5.12022 5.1203C4.77641 5.46412 4.58325 5.93044 4.58325 6.41667V17.4167C4.58325 17.9029 4.77641 18.3692 5.12022 18.713C5.46404 19.0568 5.93035 19.25 6.41659 19.25H15.5833C16.0695 19.25 16.5358 19.0568 16.8796 18.713C17.2234 18.3692 17.4166 17.9029 17.4166 17.4167V6.41667C17.4166 5.93044 17.2234 5.46412 16.8796 5.1203C16.5358 4.77649 16.0695 4.58333 15.5833 4.58333H13.7499M8.24992 4.58333C8.24992 5.06956 8.44307 5.53588 8.78689 5.8797C9.13071 6.22351 9.59702 6.41667 10.0833 6.41667H11.9166C12.4028 6.41667 12.8691 6.22351 13.2129 5.8797C13.5568 5.53588 13.7499 5.06956 13.7499 4.58333M8.24992 4.58333C8.24992 4.0971 8.44307 3.63079 8.78689 3.28697C9.13071 2.94315 9.59702 2.75 10.0833 2.75H11.9166C12.4028 2.75 12.8691 2.94315 13.2129 3.28697C13.5568 3.63079 13.7499 4.0971 13.7499 4.58333M10.9999 11H13.7499M10.9999 14.6667H13.7499M8.24992 11H8.25909M8.24992 14.6667H8.25909" stroke="#979797" stroke-width="1.5" stroke-linecap="round" stroke-linejoin="round"/>
</svg>
