<svg width="22" height="22" viewBox="0 0 22 22" fill="none" xmlns="http://www.w3.org/2000/svg">
<path d="M16.5 8.25V11V8.25ZM16.5 11V13.75V11ZM16.5 11H19.25H16.5ZM16.5 11H13.75H16.5ZM11.9167 6.41667C11.9167 7.38913 11.5304 8.32176 10.8427 9.00939C10.1551 9.69703 9.22246 10.0833 8.25 10.0833C7.27754 10.0833 6.34491 9.69703 5.65728 9.00939C4.96964 8.32176 4.58333 7.38913 4.58333 6.41667C4.58333 5.44421 4.96964 4.51158 5.65728 3.82394C6.34491 3.13631 7.27754 2.75 8.25 2.75C9.22246 2.75 10.1551 3.13631 10.8427 3.82394C11.5304 4.51158 11.9167 5.44421 11.9167 6.41667V6.41667ZM2.75 18.3333C2.75 16.8746 3.32946 15.4757 4.36091 14.4442C5.39236 13.4128 6.79131 12.8333 8.25 12.8333C9.70869 12.8333 11.1076 13.4128 12.1391 14.4442C13.1705 15.4757 13.75 16.8746 13.75 18.3333V19.25H2.75V18.3333Z" stroke="#979797" stroke-width="1.5" stroke-linecap="round" stroke-linejoin="round"/>
</svg>
