<svg width="17" height="17" viewBox="0 0 17 17" fill="none" xmlns="http://www.w3.org/2000/svg">
<path d="M6.83325 9.66667C6.83325 10.3133 7.33326 10.8333 7.94659 10.8333H9.19991C9.73324 10.8333 10.1666 10.38 10.1666 9.81333C10.1666 9.20667 9.89992 8.98667 9.50659 8.84667L7.49992 8.14667C7.10659 8.00667 6.83993 7.79334 6.83993 7.18C6.83993 6.62 7.27325 6.16 7.80658 6.16H9.05992C9.67325 6.16 10.1733 6.68 10.1733 7.32667" stroke="#CCCCCC" stroke-linecap="round" stroke-linejoin="round"/>
<path d="M8.5 5.5V11.5" stroke="#CCCCCC" stroke-linecap="round" stroke-linejoin="round"/>
<path d="M15.1666 8.50001C15.1666 12.18 12.1799 15.1667 8.49992 15.1667C4.81992 15.1667 1.83325 12.18 1.83325 8.50001C1.83325 4.82001 4.81992 1.83334 8.49992 1.83334" stroke="#CCCCCC" stroke-linecap="round" stroke-linejoin="round"/>
<path d="M15.1667 4.50001V1.83334H12.5" stroke="#CCCCCC" stroke-width="1.5" stroke-linecap="round" stroke-linejoin="round"/>
<path d="M11.8333 5.16668L15.1666 1.83334" stroke="#CCCCCC" stroke-linecap="round" stroke-linejoin="round"/>
</svg>
