<svg width="22" height="22" viewBox="0 0 22 22" fill="none" xmlns="http://www.w3.org/2000/svg">
<path d="M14.6667 7.33329V14.6666M11.0001 10.0833V14.6666M7.33341 12.8333V14.6666M5.50008 18.3333H16.5001C16.9863 18.3333 17.4526 18.1401 17.7964 17.7963C18.1403 17.4525 18.3334 16.9862 18.3334 16.5V5.49996C18.3334 5.01373 18.1403 4.54741 17.7964 4.2036C17.4526 3.85978 16.9863 3.66663 16.5001 3.66663H5.50008C5.01385 3.66663 4.54754 3.85978 4.20372 4.2036C3.8599 4.54741 3.66675 5.01373 3.66675 5.49996V16.5C3.66675 16.9862 3.8599 17.4525 4.20372 17.7963C4.54754 18.1401 5.01385 18.3333 5.50008 18.3333Z" stroke="#979797" stroke-width="1.5" stroke-linecap="round" stroke-linejoin="round"/>
</svg>
