<svg width="22" height="22" viewBox="0 0 22 22" fill="none" xmlns="http://www.w3.org/2000/svg">
<path d="M15.5833 8.25004V6.41671C15.5833 5.93048 15.3902 5.46416 15.0464 5.12034C14.7025 4.77653 14.2362 4.58337 13.75 4.58337H4.58333C4.0971 4.58337 3.63079 4.77653 3.28697 5.12034C2.94315 5.46416 2.75 5.93048 2.75 6.41671V11.9167C2.75 12.4029 2.94315 12.8693 3.28697 13.2131C3.63079 13.5569 4.0971 13.75 4.58333 13.75H6.41667M8.25 17.4167H17.4167C17.9029 17.4167 18.3692 17.2236 18.713 16.8797C19.0568 16.5359 19.25 16.0696 19.25 15.5834V10.0834C19.25 9.59714 19.0568 9.13083 18.713 8.78701C18.3692 8.44319 17.9029 8.25004 17.4167 8.25004H8.25C7.76377 8.25004 7.29745 8.44319 6.95364 8.78701C6.60982 9.13083 6.41667 9.59714 6.41667 10.0834V15.5834C6.41667 16.0696 6.60982 16.5359 6.95364 16.8797C7.29745 17.2236 7.76377 17.4167 8.25 17.4167ZM14.6667 12.8334C14.6667 13.3196 14.4735 13.7859 14.1297 14.1297C13.7859 14.4736 13.3196 14.6667 12.8333 14.6667C12.3471 14.6667 11.8808 14.4736 11.537 14.1297C11.1932 13.7859 11 13.3196 11 12.8334C11 12.3471 11.1932 11.8808 11.537 11.537C11.8808 11.1932 12.3471 11 12.8333 11C13.3196 11 13.7859 11.1932 14.1297 11.537C14.4735 11.8808 14.6667 12.3471 14.6667 12.8334Z" stroke="#979797" stroke-width="1.5" stroke-linecap="round" stroke-linejoin="round"/>
</svg>
