<svg width="17" height="20" viewBox="0 0 17 20" fill="none" xmlns="http://www.w3.org/2000/svg">
<path d="M0.987197 16.6255L0.987304 16.6256L5.7872 19.0255C5.78723 19.0255 5.78727 19.0256 5.7873 19.0256C5.89397 19.0789 6.01248 19.104 6.13159 19.0986C6.25075 19.0933 6.36655 19.0576 6.46802 18.9949C6.56949 18.9322 6.65326 18.8446 6.71138 18.7404C6.76949 18.6363 6.80003 18.519 6.8001 18.3997V11.4835C6.80003 11.3535 6.76378 11.2261 6.69541 11.1156C6.62704 11.0051 6.52925 10.9158 6.413 10.8577L6.41289 10.8576L1.613 8.45766C1.61296 8.45764 1.61293 8.45763 1.61289 8.45761C1.50622 8.40433 1.38772 8.37918 1.2686 8.38454C1.14945 8.38991 1.03364 8.42563 0.932173 8.48832C0.830704 8.55102 0.746936 8.63859 0.688818 8.74275C0.630717 8.84688 0.600178 8.96412 0.600098 9.08336C0.600098 9.0834 0.600098 9.08343 0.600098 9.08346L0.100098 9.08319L0.987197 16.6255ZM0.987197 16.6255C0.87094 16.5674 0.773152 16.4781 0.704785 16.3676C0.636416 16.2571 0.600167 16.1297 0.600098 15.9997L0.987197 16.6255ZM14.5296 5.08404C14.6456 5.02584 14.7431 4.93654 14.8112 4.82612C14.8795 4.7156 14.9156 4.58828 14.9156 4.45839C14.9156 4.32851 14.8795 4.20119 14.8112 4.09067C14.7431 3.98028 14.6456 3.89101 14.5297 3.83281L14.5296 5.08404ZM14.5296 5.08404C14.5295 5.08409 14.5294 5.08414 14.5293 5.08419L8.813 7.94233C8.81296 7.94234 8.81292 7.94236 8.81289 7.94238C8.71576 7.9909 8.60867 8.01615 8.5001 8.01615C8.39152 8.01615 8.28444 7.9909 8.1873 7.94238C8.18727 7.94236 8.18723 7.94234 8.1872 7.94233L2.47093 5.08419C2.47083 5.08414 2.47072 5.08409 2.47062 5.08404C2.35464 5.02584 2.25712 4.93654 2.18895 4.82612C2.12071 4.7156 2.08458 4.58828 2.08458 4.45839C2.08458 4.32851 2.12071 4.20119 2.18895 4.09067C2.25714 3.9802 2.35472 3.89088 2.47076 3.83268C2.47081 3.83265 2.47087 3.83262 2.47093 3.83259L8.1872 0.974461C8.18723 0.974443 8.18727 0.974425 8.1873 0.974407C8.28444 0.925891 8.39152 0.900635 8.5001 0.900635C8.60867 0.900635 8.71576 0.925892 8.81289 0.974407C8.81292 0.974425 8.81296 0.974443 8.813 0.97446L14.5293 3.83259L14.5296 5.08404ZM16.013 16.6255L16.0129 16.6256L11.213 19.0255C11.213 19.0255 11.2129 19.0256 11.2129 19.0256C11.1062 19.0789 10.9877 19.104 10.8686 19.0986C10.7494 19.0933 10.6336 19.0576 10.5322 18.9949C10.4307 18.9322 10.3469 18.8446 10.2888 18.7404C10.2307 18.6363 10.2002 18.519 10.2001 18.3997V11.4835C10.2002 11.3535 10.2364 11.2261 10.3048 11.1156C10.3732 11.0051 10.4709 10.9158 10.5872 10.8577L10.5873 10.8576L15.3872 8.45766C15.4939 8.40435 15.6124 8.37918 15.7316 8.38454C15.8507 8.38991 15.9666 8.42563 16.068 8.48832C16.1695 8.55102 16.2533 8.63859 16.3114 8.74275C16.3695 8.84691 16.4 8.96419 16.4001 9.08346V15.9997C16.4 16.1297 16.3638 16.2571 16.2954 16.3676C16.227 16.4781 16.1293 16.5674 16.013 16.6255Z" fill="#FFA31A" stroke="#FFA31A"/>
</svg>
