<svg width="19" height="20" viewBox="0 0 19 20" fill="none" xmlns="http://www.w3.org/2000/svg">
<path d="M7.5 9V15M11.5 9V15M1.5 5H17.5M16.5 5L15.633 17.142C15.5971 17.6466 15.3713 18.1188 15.0011 18.4636C14.6309 18.8083 14.1439 19 13.638 19H5.362C4.85614 19 4.36907 18.8083 3.99889 18.4636C3.6287 18.1188 3.40292 17.6466 3.367 17.142L2.5 5H16.5ZM12.5 5V2C12.5 1.73478 12.3946 1.48043 12.2071 1.29289C12.0196 1.10536 11.7652 1 11.5 1H7.5C7.23478 1 6.98043 1.10536 6.79289 1.29289C6.60536 1.48043 6.5 1.73478 6.5 2V5H12.5Z" stroke="#1C1C1C" stroke-width="1.5" stroke-linecap="round" stroke-linejoin="round"/>
</svg>
