<svg width="20" height="24" viewBox="0 0 20 24" fill="none" xmlns="http://www.w3.org/2000/svg">
<path d="M11.2576 5.74318C13.0834 4.32745 14.3033 1.13803 13.5525 0.998534C12.555 0.81311 10.3888 1.62617 9.34179 1.76942C7.85677 1.93493 6.23938 0.282956 5.33151 1.20377C4.59335 1.95245 5.86072 4.67516 7.84356 5.8613C1.92787 8.54512 -6.38701 22.0181 8.11875 22.9957C28.1899 24.3484 18.1396 8.3585 11.2576 5.74318ZM12.9814 16.3686C12.9196 16.8939 12.6181 17.3689 12.1673 17.6914C11.6914 18.0319 11.0944 18.1902 10.5012 18.2346V18.8149C10.5012 18.9702 10.4278 19.1204 10.3018 19.2232C10.1287 19.3646 9.87439 19.3995 9.66431 19.3101C9.45688 19.222 9.32061 19.0257 9.32061 18.8149V18.1806C9.2189 18.1628 9.11793 18.1416 9.01814 18.1163C8.4638 17.9757 7.94961 17.7017 7.57401 17.2962C7.38691 17.0941 7.23438 16.8648 7.12889 16.6172C7.10133 16.5525 7.07676 16.4866 7.05525 16.42C7.03576 16.3597 7.01566 16.2984 7.00871 16.2355C6.99702 16.1301 7.01967 16.0225 7.07292 15.9285C7.18237 15.7353 7.413 15.6186 7.6485 15.638C7.88026 15.657 8.0834 15.8054 8.15636 16.0094C8.17884 16.0722 8.19408 16.1365 8.21933 16.1987C8.24434 16.2604 8.27456 16.3204 8.31008 16.3775C8.38022 16.49 8.46809 16.5938 8.56929 16.6838C8.7779 16.8693 9.04361 16.9899 9.32061 17.0616V14.9055C8.77898 14.776 8.21989 14.6088 7.77262 14.2878C7.55526 14.1318 7.37082 13.9378 7.25002 13.7083C7.12256 13.4661 7.06976 13.1962 7.06761 12.9281C7.06541 12.656 7.12143 12.3862 7.24443 12.1382C7.35964 11.9061 7.5255 11.6976 7.72886 11.5248C8.1637 11.1553 8.74131 10.9493 9.32067 10.8736V10.8261V10.2711C9.32067 10.1159 9.39414 9.96564 9.52007 9.86285C9.69322 9.72152 9.94746 9.6866 10.1576 9.77595C10.365 9.8641 10.5013 10.0604 10.5013 10.2711V10.8261V10.8703C10.5785 10.8793 10.6555 10.89 10.732 10.9028C11.301 10.9979 11.8574 11.2147 12.2734 11.5933C12.4705 11.7727 12.6319 11.9863 12.7453 12.2193C12.777 12.2844 12.8047 12.3509 12.8287 12.4187C12.8511 12.4819 12.8736 12.547 12.8842 12.613C12.9013 12.7184 12.8839 12.8272 12.8351 12.9236C12.735 13.1211 12.5106 13.2468 12.2744 13.2375C12.0424 13.2282 11.8323 13.0887 11.7492 12.8885C11.7245 12.829 11.7121 12.766 11.6868 12.7066C11.6614 12.6465 11.6284 12.5892 11.5904 12.535C11.5165 12.4297 11.4208 12.3394 11.3115 12.265C11.0749 12.1037 10.7879 12.0197 10.5011 11.9727V14.0361C10.8419 14.1114 11.183 14.1936 11.5096 14.3124C12.0031 14.4921 12.4707 14.7675 12.7401 15.2019C12.6983 15.1342 12.6577 15.0683 12.7415 15.2041C12.8239 15.3376 12.7846 15.274 12.7432 15.2071C12.9575 15.5557 13.028 15.9726 12.9814 16.3686Z" fill="#03BF4E"/>
</svg>
