<svg width="24" height="24" viewBox="0 0 24 24" fill="none" xmlns="http://www.w3.org/2000/svg">
<path d="M11.395 14.7907C11.3923 14.7907 11.3896 14.7907 11.3869 14.7907C10.8901 14.7862 10.4905 14.3799 10.495 13.8826L10.4991 13.4326C10.4991 13.407 10.5004 13.3809 10.5031 13.3552C10.6278 12.0462 11.4967 11.2438 12.1956 10.599C12.4323 10.3803 12.6564 10.1737 12.8472 9.95818C13.0798 9.69583 13.4173 9.15853 13.0623 8.51008C12.6532 7.76128 11.6542 7.54933 10.878 7.72708C10.0671 7.91248 9.76827 8.60503 9.66207 9.00103C9.53337 9.48118 9.03972 9.76603 8.55957 9.63778C8.07942 9.50908 7.79457 9.01543 7.92282 8.53528C8.28147 7.19563 9.21207 6.26188 10.4757 5.97253C12.1762 5.58418 13.8889 6.27133 14.6409 7.64608C15.2668 8.79088 15.0954 10.1341 14.1931 11.152C13.9425 11.4346 13.6747 11.6821 13.4155 11.9211C12.7698 12.5173 12.3661 12.916 12.2977 13.4916L12.2941 13.8979C12.2905 14.3934 11.8882 14.7907 11.395 14.7907Z" fill="#E1E1E1"/>
<path d="M11.3946 17.4889C11.1606 17.4889 10.9266 17.3944 10.7601 17.2279C10.5891 17.0614 10.4946 16.8274 10.4946 16.5889C10.4946 16.3549 10.5891 16.1209 10.7601 15.9544C11.0931 15.6214 11.6961 15.6214 12.0291 15.9544C12.2001 16.1209 12.2946 16.3549 12.2946 16.5889C12.2946 16.8274 12.2001 17.0569 12.0336 17.2279C11.8626 17.3944 11.6331 17.4889 11.3946 17.4889Z" fill="#E1E1E1"/>
<path d="M11.6659 23.3826C10.6421 23.3826 9.62738 23.2494 8.64953 22.9861C4.43573 21.8526 1.13633 18.3619 0.243981 14.0928C-0.665469 9.74352 1.01303 5.17152 4.52078 2.44497C6.54848 0.868622 9.10583 0.00012207 11.7221 0.00012207C13.5334 0.00012207 15.332 0.421322 16.9241 1.21737C20.8558 3.18432 23.396 7.29372 23.396 11.6871C23.396 15.2718 21.7045 18.7269 18.8713 20.9292C16.8364 22.5114 14.2772 23.3826 11.6659 23.3826ZM11.7226 1.80012C9.50453 1.80012 7.33913 2.53362 5.62598 3.86607C2.65733 6.17367 1.23623 10.0432 2.00618 13.7242C2.76128 17.3355 5.55263 20.2888 9.11753 21.2478C9.94283 21.4696 10.8005 21.5826 11.6659 21.5826H11.6663C13.8794 21.5826 16.0457 20.8459 17.767 19.5081C20.165 17.6442 21.5965 14.7205 21.5965 11.6871C21.5965 7.96962 19.4468 4.49202 16.1195 2.82747C14.7758 2.15562 13.2557 1.80012 11.7226 1.80012Z" fill="#E1E1E1"/>
</svg>
