<svg width="24" height="24" viewBox="0 0 24 24" fill="none" xmlns="http://www.w3.org/2000/svg">
<g clip-path="url(#clip0_722_2078)">
<path d="M12.7531 24.0001H11.2469C10.0286 24.0001 9.03745 23.0089 9.03745 21.7907V21.2811C8.51953 21.1157 8.01633 20.9068 7.53291 20.6566L7.17178 21.0177C6.29714 21.8935 4.89609 21.8678 4.04686 21.0174L2.98228 19.9529C2.13155 19.1031 2.10708 17.7025 2.98256 16.828L3.34341 16.4671C3.09323 15.9837 2.88441 15.4806 2.71889 14.9626H2.20936C0.991172 14.9626 0 13.9714 0 12.7532V11.2469C0 10.0287 0.991172 9.03756 2.20941 9.03756H2.71894C2.88445 8.51959 3.09328 8.01644 3.34345 7.53301L2.98233 7.17194C2.10736 6.2979 2.1315 4.89719 2.98261 4.04701L4.04728 2.98239C4.89848 2.13001 6.2992 2.10873 7.17216 2.98267L7.53295 3.34347C8.01638 3.09334 8.51958 2.88447 9.0375 2.71895V2.20942C9.0375 0.991186 10.0286 6.10352e-05 11.2469 6.10352e-05H12.7531C13.9714 6.10352e-05 14.9625 0.991186 14.9625 2.20942V2.719C15.4804 2.88447 15.9836 3.09334 16.467 3.34351L16.8282 2.98239C17.7028 2.10667 19.1039 2.13236 19.9531 2.98272L21.0177 4.04725C21.8684 4.89705 21.8929 6.29762 21.0174 7.17217L20.6565 7.53301C20.9067 8.01644 21.1155 8.51955 21.2811 9.03756H21.7906C23.0088 9.03756 24 10.0287 24 11.2469V12.7532C24 13.9714 23.0088 14.9626 21.7906 14.9626H21.2811C21.1155 15.4805 20.9067 15.9837 20.6565 16.4671L21.0177 16.8282C21.8926 17.7023 21.8685 19.103 21.0174 19.9532L19.9527 21.0178C19.1015 21.8702 17.7008 21.8914 16.8278 21.0175L16.467 20.6567C15.9836 20.9068 15.4804 21.1157 14.9625 21.2812V21.7908C14.9625 23.0089 13.9714 24.0001 12.7531 24.0001ZM7.76798 19.1799C8.43956 19.5771 9.16238 19.8771 9.91631 20.0717C10.2268 20.1518 10.4438 20.4318 10.4438 20.7525V21.7907C10.4438 22.2335 10.8041 22.5938 11.2469 22.5938H12.7531C13.196 22.5938 13.5563 22.2335 13.5563 21.7907V20.7525C13.5563 20.4318 13.7732 20.1518 14.0837 20.0717C14.8377 19.8771 15.5605 19.5771 16.2321 19.1799C16.5084 19.0165 16.8602 19.0609 17.0872 19.288L17.8226 20.0234C18.1396 20.3408 18.6488 20.3335 18.9581 20.0237L20.0234 18.9584C20.3319 18.6503 20.3422 18.141 20.0237 17.8229L19.288 17.0872C19.061 16.8602 19.0166 16.5084 19.1799 16.2321C19.5771 15.5605 19.8771 14.8377 20.0717 14.0837C20.1518 13.7732 20.4319 13.5564 20.7525 13.5564H21.7906C22.2335 13.5564 22.5938 13.1961 22.5938 12.7532V11.247C22.5938 10.8041 22.2335 10.4439 21.7906 10.4439H20.7525C20.4318 10.4439 20.1518 10.2269 20.0717 9.91647C19.8771 9.16248 19.5771 8.43967 19.1799 7.76814C19.0166 7.49186 19.061 7.14001 19.288 6.91305L20.0234 6.17762C20.3413 5.86009 20.333 5.35103 20.0237 5.04208L18.9585 3.97684C18.6497 3.66765 18.1404 3.65861 17.8229 3.97656L17.0872 4.71226C16.8603 4.93928 16.5083 4.98372 16.2321 4.82031C15.5605 4.42314 14.8377 4.12309 14.0838 3.92851C13.7733 3.8484 13.5563 3.56837 13.5563 3.2477V2.20942C13.5563 1.76659 13.196 1.40631 12.7532 1.40631H11.247C10.8041 1.40631 10.4438 1.76659 10.4438 2.20942V3.24761C10.4438 3.56828 10.2269 3.84831 9.91636 3.92842C9.16242 4.123 8.43961 4.42305 7.76803 4.82022C7.49166 4.98358 7.13986 4.93914 6.91289 4.71217L6.17752 3.97675C5.86045 3.65931 5.35125 3.66667 5.04202 3.97642L3.97669 5.0417C3.66816 5.34986 3.65784 5.85906 3.97641 6.17725L4.71211 6.91295C4.93908 7.13992 4.98352 7.49176 4.82016 7.76805C4.42298 8.43958 4.12298 9.16239 3.92841 9.91637C3.84825 10.2269 3.56822 10.4438 3.24759 10.4438H2.20941C1.76658 10.4438 1.40625 10.8041 1.40625 11.2469V12.7532C1.40625 13.196 1.76658 13.5563 2.20941 13.5563H3.24755C3.56822 13.5563 3.8482 13.7732 3.92836 14.0837C4.12294 14.8377 4.42298 15.5605 4.82011 16.232C4.98347 16.5083 4.93903 16.8602 4.71206 17.0871L3.97664 17.8225C3.65873 18.1401 3.66703 18.6491 3.97636 18.9581L5.04159 20.0233C5.35036 20.3325 5.85961 20.3416 6.17714 20.0236L6.9128 19.2879C7.08005 19.1207 7.428 18.9788 7.76798 19.1799Z" fill="#E1E1E1"/>
<path d="M12 17.2219C9.12056 17.2219 6.77808 14.8794 6.77808 12.0001C6.77808 9.12071 9.12056 6.77818 12 6.77818C14.8793 6.77818 17.2218 9.12071 17.2218 12.0001C17.2218 14.8794 14.8793 17.2219 12 17.2219ZM12 8.18443C9.89597 8.18443 8.18433 9.89612 8.18433 12.0001C8.18433 14.104 9.89601 15.8157 12 15.8157C14.1039 15.8157 15.8156 14.104 15.8156 12.0001C15.8156 9.89612 14.1039 8.18443 12 8.18443Z" fill="#E1E1E1"/>
</g>
<defs>
<clipPath id="clip0_722_2078">
<rect width="24" height="24" fill="white"/>
</clipPath>
</defs>
</svg>
