<svg width="20" height="20" viewBox="0 0 20 20" fill="none" xmlns="http://www.w3.org/2000/svg">
<path d="M0.25 6.83307C0.250596 7.47385 0.505385 8.08823 0.958455 8.54137C1.41153 8.99451 2.02586 9.2494 2.66665 9.25009H6.83335C7.47414 9.2494 8.08847 8.99451 8.54154 8.54137C8.99461 8.08823 9.2494 7.47385 9.25 6.83307V2.66712C9.2494 2.02633 8.99461 1.41195 8.54154 0.958812C8.08847 0.505672 7.47414 0.250787 6.83335 0.250092H2.66665C2.02586 0.250787 1.41153 0.505672 0.958455 0.958812C0.505385 1.41195 0.250596 2.02633 0.25 2.66712V6.83307ZM1.75 2.66712C1.75026 2.42405 1.8469 2.19101 2.01874 2.0191C2.19058 1.84719 2.42358 1.75045 2.66665 1.75009H6.83335C7.07642 1.75045 7.30942 1.84719 7.48126 2.0191C7.6531 2.19101 7.74974 2.42405 7.75 2.66712V6.83307C7.74974 7.07613 7.6531 7.30918 7.48126 7.48108C7.30942 7.65299 7.07642 7.74973 6.83335 7.75009H2.66665C2.42358 7.74973 2.19058 7.65299 2.01874 7.48108C1.8469 7.30918 1.75026 7.07613 1.75 6.83307V2.66712Z" fill="#E1E1E1"/>
<path d="M0.25 17.3331C0.250596 17.9739 0.505385 18.5882 0.958455 19.0414C1.41153 19.4945 2.02586 19.7494 2.66665 19.7501H6.83335C7.47414 19.7494 8.08847 19.4945 8.54154 19.0414C8.99461 18.5882 9.2494 17.9739 9.25 17.3331V13.1671C9.2494 12.5263 8.99461 11.912 8.54154 11.4588C8.08847 11.0057 7.47414 10.7508 6.83335 10.7501H2.66665C2.02586 10.7508 1.41153 11.0057 0.958455 11.4588C0.505385 11.912 0.250596 12.5263 0.25 13.1671V17.3331ZM1.75 13.1671C1.75026 12.9241 1.8469 12.691 2.01874 12.5191C2.19058 12.3472 2.42358 12.2504 2.66665 12.2501H6.83335C7.07642 12.2504 7.30942 12.3472 7.48126 12.5191C7.6531 12.691 7.74974 12.9241 7.75 13.1671V17.3331C7.74974 17.5761 7.6531 17.8092 7.48126 17.9811C7.30942 18.153 7.07642 18.2497 6.83335 18.2501H2.66665C2.42358 18.2497 2.19058 18.153 2.01874 17.9811C1.8469 17.8092 1.75026 17.5761 1.75 17.3331V13.1671Z" fill="#E1E1E1"/>
<path d="M15.25 0.250092C14.36 0.250092 13.49 0.514012 12.7499 1.00848C12.0099 1.50294 11.4331 2.20575 11.0925 3.02802C10.7519 3.85028 10.6628 4.75508 10.8365 5.628C11.0101 6.50091 11.4387 7.30274 12.068 7.93207C12.6974 8.56141 13.4992 8.98999 14.3721 9.16363C15.245 9.33726 16.1498 9.24814 16.9721 8.90755C17.7943 8.56696 18.4971 7.99018 18.9916 7.25016C19.4861 6.51014 19.75 5.64011 19.75 4.75009C19.7487 3.55702 19.2742 2.41319 18.4305 1.56956C17.5869 0.725928 16.4431 0.251402 15.25 0.250092ZM15.25 7.75009C14.6567 7.75009 14.0766 7.57414 13.5833 7.2445C13.0899 6.91486 12.7054 6.44632 12.4784 5.89814C12.2513 5.34996 12.1919 4.74676 12.3076 4.16482C12.4234 3.58288 12.7091 3.04833 13.1287 2.62877C13.5482 2.20921 14.0828 1.92349 14.6647 1.80774C15.2467 1.69198 15.8499 1.75139 16.3981 1.97845C16.9462 2.20552 17.4148 2.59003 17.7444 3.08338C18.0741 3.57673 18.25 4.15675 18.25 4.75009C18.2492 5.54549 17.9328 6.30806 17.3704 6.87049C16.808 7.43292 16.0454 7.74926 15.25 7.75009Z" fill="#E1E1E1"/>
<path d="M13.1667 10.7501C12.5259 10.7508 11.9115 11.0057 11.4585 11.4588C11.0054 11.912 10.7506 12.5263 10.75 13.1671V17.3331C10.7506 17.9739 11.0054 18.5882 11.4585 19.0414C11.9115 19.4945 12.5259 19.7494 13.1667 19.7501H17.3333C17.9741 19.7494 18.5885 19.4945 19.0415 19.0414C19.4946 18.5882 19.7494 17.9739 19.75 17.3331V13.1671C19.7494 12.5263 19.4946 11.912 19.0415 11.4588C18.5885 11.0057 17.9741 10.7508 17.3333 10.7501H13.1667ZM18.25 13.1671V17.3331C18.2497 17.5761 18.1531 17.8092 17.9813 17.9811C17.8094 18.153 17.5764 18.2497 17.3333 18.2501H13.1667C12.9236 18.2497 12.6906 18.153 12.5187 17.9811C12.3469 17.8092 12.2503 17.5761 12.25 17.3331V13.1671C12.2503 12.9241 12.3469 12.691 12.5187 12.5191C12.6906 12.3472 12.9236 12.2504 13.1667 12.2501H17.3333C17.5764 12.2504 17.8094 12.3472 17.9813 12.5191C18.1531 12.691 18.2497 12.9241 18.25 13.1671Z" fill="#E1E1E1"/>
</svg>
