<svg width="24" height="24" viewBox="0 0 24 24" fill="none" xmlns="http://www.w3.org/2000/svg">
<path d="M20.5385 2.077H3.46153C1.55283 2.077 0 3.62982 0 5.53853V18.4616C0 20.3703 1.55283 21.9231 3.46153 21.9231H20.5385C22.4472 21.9231 24 20.3703 24 18.4616V5.53853C24 3.62982 22.4472 2.077 20.5385 2.077ZM22.6154 14.077H17.5385C16.3933 14.077 15.4615 13.1453 15.4615 12.0001C15.4615 10.8548 16.3932 9.92312 17.5385 9.92312H22.6154V14.077ZM22.6154 8.53853H17.5385C15.6298 8.53853 14.0769 10.0914 14.0769 12.0001C14.0769 13.9088 15.6298 15.4616 17.5385 15.4616H22.6154V18.4616C22.6154 19.6068 21.6837 20.5385 20.5385 20.5385H3.46153C2.31633 20.5385 1.38459 19.6068 1.38459 18.4616V5.53853C1.38459 4.39332 2.31628 3.46159 3.46153 3.46159H20.5385C21.6837 3.46159 22.6154 4.39328 22.6154 5.53853V8.53853Z" fill="#E1E1E1"/>
<path d="M18.4616 11.3078H17.5385C17.1561 11.3078 16.8462 11.6178 16.8462 12.0001C16.8462 12.3824 17.1562 12.6924 17.5385 12.6924H18.4616C18.8439 12.6924 19.1538 12.3824 19.1538 12.0001C19.1538 11.6177 18.8439 11.3078 18.4616 11.3078Z" fill="#E1E1E1"/>
</svg>
